<svg xmlns="http://www.w3.org/2000/svg" viewBox="0 0 100 100" fill="none">
  <!-- Server/database node -->
  <rect x="18" y="20" width="28" height="20" rx="3" stroke="#7EB8DA" stroke-width="3" fill="none"/>
  <circle cx="26" cy="30" r="2.5" fill="#7EB8DA"/>
  <line x1="33" y1="28" x2="41" y2="28" stroke="#7EB8DA" stroke-width="2" stroke-linecap="round"/>
  <line x1="33" y1="33" x2="38" y2="33" stroke="#7EB8DA" stroke-width="2" stroke-linecap="round"/>
  <!-- AI brain node -->
  <rect x="54" y="20" width="28" height="20" rx="3" stroke="#7EB8DA" stroke-width="3" fill="none"/>
  <circle cx="68" cy="27" r="5" stroke="#7EB8DA" stroke-width="2" fill="none"/>
  <circle cx="68" cy="27" r="1.5" fill="#7EB8DA"/>
  <line x1="63" y1="27" x2="60" y2="27" stroke="#7EB8DA" stroke-width="1.5"/>
  <line x1="73" y1="27" x2="76" y2="27" stroke="#7EB8DA" stroke-width="1.5"/>
  <line x1="68" y1="22" x2="68" y2="35" stroke="#7EB8DA" stroke-width="1.5"/>
  <!-- Connection line between nodes -->
  <line x1="46" y1="30" x2="54" y2="30" stroke="#7EB8DA" stroke-width="2" stroke-dasharray="3,2"/>
  <!-- Document/paper below -->
  <rect x="30" y="55" width="40" height="30" rx="2" stroke="#7EB8DA" stroke-width="3" fill="none"/>
  <line x1="37" y1="63" x2="63" y2="63" stroke="#7EB8DA" stroke-width="2" stroke-linecap="round"/>
  <line x1="37" y1="69" x2="58" y2="69" stroke="#7EB8DA" stroke-width="2" stroke-linecap="round"/>
  <line x1="37" y1="75" x2="53" y2="75" stroke="#7EB8DA" stroke-width="2" stroke-linecap="round"/>
  <!-- Connection from nodes down to document -->
  <line x1="50" y1="40" x2="50" y2="55" stroke="#7EB8DA" stroke-width="2" stroke-dasharray="3,2"/>
</svg>
